<svg width="127" height="31" viewBox="0 0 127 31" fill="none" xmlns="http://www.w3.org/2000/svg">
<g clip-path="url(#clip0_149_862)">
<path d="M0.304688 21L5.40869 9.72H7.13669L12.3047 21H10.2087L8.83269 17.832L9.66469 18.392H2.89669L3.76069 17.832L2.38469 21H0.304688ZM6.25669 11.928L4.00069 17.272L3.58469 16.776H8.96069L8.62469 17.272L6.32069 11.928H6.25669ZM13.3927 24.456V14.936C13.3927 14.6053 13.382 14.2693 13.3607 13.928C13.3394 13.5867 13.3074 13.2507 13.2647 12.92H15.2007L15.3767 14.616H15.2007C15.3607 14.0507 15.6967 13.6027 16.2087 13.272C16.7314 12.9307 17.334 12.76 18.0167 12.76C18.7314 12.76 19.3554 12.9307 19.8887 13.272C20.422 13.6027 20.838 14.0827 21.1367 14.712C21.4354 15.3307 21.5847 16.0773 21.5847 16.952C21.5847 17.8267 21.4354 18.5787 21.1367 19.208C20.838 19.8373 20.422 20.3227 19.8887 20.664C19.3554 20.9947 18.7314 21.16 18.0167 21.16C17.3447 21.16 16.7527 20.9947 16.2407 20.664C15.7287 20.3333 15.3874 19.8907 15.2167 19.336H15.3927V24.456H13.3927ZM17.4567 19.624C18.0967 19.624 18.6087 19.4053 18.9927 18.968C19.3767 18.52 19.5687 17.848 19.5687 16.952C19.5687 16.056 19.3767 15.3893 18.9927 14.952C18.6087 14.5147 18.0967 14.296 17.4567 14.296C16.8274 14.296 16.3207 14.5147 15.9367 14.952C15.5527 15.3893 15.3607 16.056 15.3607 16.952C15.3607 17.848 15.5527 18.52 15.9367 18.968C16.3207 19.4053 16.8274 19.624 17.4567 19.624ZM23.3146 24.456V14.936C23.3146 14.6053 23.3039 14.2693 23.2826 13.928C23.2612 13.5867 23.2292 13.2507 23.1866 12.92H25.1226L25.2986 14.616H25.1226C25.2826 14.0507 25.6186 13.6027 26.1306 13.272C26.6532 12.9307 27.2559 12.76 27.9386 12.76C28.6532 12.76 29.2772 12.9307 29.8106 13.272C30.3439 13.6027 30.7599 14.0827 31.0586 14.712C31.3572 15.3307 31.5066 16.0773 31.5066 16.952C31.5066 17.8267 31.3572 18.5787 31.0586 19.208C30.7599 19.8373 30.3439 20.3227 29.8106 20.664C29.2772 20.9947 28.6532 21.16 27.9386 21.16C27.2666 21.16 26.6746 20.9947 26.1626 20.664C25.6506 20.3333 25.3092 19.8907 25.1386 19.336H25.3146V24.456H23.3146ZM27.3786 19.624C28.0186 19.624 28.5306 19.4053 28.9146 18.968C29.2986 18.52 29.4906 17.848 29.4906 16.952C29.4906 16.056 29.2986 15.3893 28.9146 14.952C28.5306 14.5147 28.0186 14.296 27.3786 14.296C26.7492 14.296 26.2426 14.5147 25.8586 14.952C25.4746 15.3893 25.2826 16.056 25.2826 16.952C25.2826 17.848 25.4746 18.52 25.8586 18.968C26.2426 19.4053 26.7492 19.624 27.3786 19.624ZM36.1164 21.16C35.4231 21.16 34.7831 21.08 34.1964 20.92C33.6204 20.7493 33.1351 20.5147 32.7404 20.216L33.3004 18.872C33.7058 19.1493 34.1538 19.3627 34.6444 19.512C35.1351 19.6613 35.6311 19.736 36.1324 19.736C36.6658 19.736 37.0604 19.6453 37.3164 19.464C37.5831 19.2827 37.7164 19.0373 37.7164 18.728C37.7164 18.4827 37.6311 18.2907 37.4604 18.152C37.3004 18.0027 37.0391 17.8907 36.6764 17.816L35.0764 17.512C34.3938 17.3627 33.8711 17.1067 33.5084 16.744C33.1564 16.3813 32.9804 15.9067 32.9804 15.32C32.9804 14.8187 33.1138 14.376 33.3804 13.992C33.6578 13.608 34.0471 13.3093 34.5484 13.096C35.0604 12.872 35.6578 12.76 36.3404 12.76C36.9378 12.76 37.4978 12.84 38.0204 13C38.5538 13.16 39.0018 13.4 39.3644 13.72L38.7884 15.016C38.4578 14.7493 38.0791 14.5413 37.6524 14.392C37.2258 14.2427 36.8098 14.168 36.4044 14.168C35.8498 14.168 35.4444 14.2693 35.1884 14.472C34.9324 14.664 34.8044 14.9147 34.8044 15.224C34.8044 15.4587 34.8791 15.656 35.0284 15.816C35.1884 15.9653 35.4338 16.0773 35.7644 16.152L37.3644 16.456C38.0791 16.5947 38.6178 16.84 38.9804 17.192C39.3538 17.5333 39.5404 18.0027 39.5404 18.6C39.5404 19.1333 39.3964 19.592 39.1084 19.976C38.8204 20.36 38.4204 20.6533 37.9084 20.856C37.3964 21.0587 36.7991 21.16 36.1164 21.16ZM50.2667 21.16C49.584 21.16 48.9867 20.9947 48.4747 20.664C47.9627 20.3227 47.6214 19.864 47.4507 19.288H47.6267V21H45.6427V9.224H47.6427V14.568H47.4507C47.632 14.0133 47.9787 13.576 48.4907 13.256C49.0027 12.9253 49.5947 12.76 50.2667 12.76C50.9814 12.76 51.6054 12.9307 52.1387 13.272C52.672 13.6133 53.088 14.0987 53.3867 14.728C53.6854 15.3467 53.8347 16.0933 53.8347 16.968C53.8347 17.8427 53.6854 18.5947 53.3867 19.224C53.088 19.8427 52.6667 20.3227 52.1227 20.664C51.5894 20.9947 50.9707 21.16 50.2667 21.16ZM49.7067 19.624C50.336 19.624 50.8427 19.4053 51.2267 18.968C51.6214 18.5307 51.8187 17.864 51.8187 16.968C51.8187 16.072 51.6214 15.4053 51.2267 14.968C50.8427 14.52 50.336 14.296 49.7067 14.296C49.0774 14.296 48.5707 14.5147 48.1867 14.952C47.8027 15.3893 47.6107 16.056 47.6107 16.952C47.6107 17.848 47.8027 18.52 48.1867 18.968C48.5707 19.4053 49.0774 19.624 49.7067 19.624ZM55.2483 24.632L54.7843 23.048C55.2856 22.9413 55.707 22.8187 56.0483 22.68C56.3896 22.5413 56.6723 22.36 56.8963 22.136C57.1203 21.912 57.307 21.624 57.4563 21.272L57.8563 20.328L57.8083 21.112L54.2883 12.92H56.4163L58.9443 19.224H58.4803L61.0243 12.92H63.0403L59.3603 21.448C59.115 22.024 58.8483 22.4987 58.5603 22.872C58.2723 23.256 57.963 23.56 57.6323 23.784C57.3016 24.0187 56.939 24.2 56.5443 24.328C56.1496 24.456 55.7176 24.5573 55.2483 24.632ZM99.6933 21V9.72H101.757V19.256H107.069V21H99.6933ZM108.646 21V9.72H110.71V19.256H116.022V21H108.646ZM122.238 21.16C121.065 21.16 120.057 20.9253 119.214 20.456C118.382 19.976 117.742 19.304 117.294 18.44C116.846 17.5653 116.622 16.536 116.622 15.352C116.622 14.168 116.846 13.144 117.294 12.28C117.742 11.416 118.382 10.7493 119.214 10.28C120.057 9.8 121.065 9.56 122.238 9.56C123.028 9.56 123.737 9.672 124.366 9.896C125.006 10.12 125.556 10.4507 126.014 10.888L125.342 12.52C124.841 12.1147 124.356 11.8267 123.886 11.656C123.428 11.4747 122.9 11.384 122.302 11.384C121.161 11.384 120.286 11.7307 119.678 12.424C119.081 13.1067 118.782 14.0827 118.782 15.352C118.782 16.6213 119.081 17.6027 119.678 18.296C120.286 18.9893 121.161 19.336 122.302 19.336C122.9 19.336 123.428 19.2507 123.886 19.08C124.356 18.8987 124.841 18.6 125.342 18.184L126.014 19.816C125.556 20.2427 125.006 20.5733 124.366 20.808C123.737 21.0427 123.028 21.16 122.238 21.16Z" fill="#333333" fill-opacity="0.8"/>
<path d="M68.6624 21V9.72H70.4704L74.6144 19.048H74.1184L78.2624 9.72H80.0544V21H78.1824V12.632H78.7584L74.9664 21H73.7344L69.9424 12.632H70.5344V21H68.6624ZM86.3123 21.16C84.9576 21.16 83.8963 20.7867 83.1283 20.04C82.3603 19.2933 81.9763 18.2693 81.9763 16.968C81.9763 16.1253 82.1416 15.3893 82.4723 14.76C82.803 14.1307 83.2616 13.64 83.8483 13.288C84.4456 12.936 85.139 12.76 85.9283 12.76C86.707 12.76 87.3576 12.9253 87.8803 13.256C88.403 13.5867 88.7976 14.0507 89.0643 14.648C89.3416 15.2453 89.4803 15.944 89.4803 16.744V17.272H83.5923V16.216H88.0563L87.7843 16.44C87.7843 15.6933 87.6243 15.1227 87.3043 14.728C86.995 14.3333 86.5416 14.136 85.9443 14.136C85.283 14.136 84.771 14.3707 84.4083 14.84C84.0563 15.3093 83.8803 15.9653 83.8803 16.808V17.016C83.8803 17.8907 84.0936 18.5467 84.5203 18.984C84.9576 19.4107 85.571 19.624 86.3603 19.624C86.819 19.624 87.2456 19.5653 87.6403 19.448C88.0456 19.32 88.4296 19.1173 88.7923 18.84L89.3843 20.184C89.0003 20.4933 88.5416 20.7333 88.0083 20.904C87.475 21.0747 86.9096 21.16 86.3123 21.16Z" fill="#333333"/>
<path d="M90.95 21V18.776H93.19V21H90.95Z" fill="#F07D35"/>
<path d="M88 0.75H73C68.9959 0.75 65.75 3.99594 65.75 8V23C65.75 27.0041 68.9959 30.25 73 30.25H88C92.0041 30.25 95.25 27.0041 95.25 23V8C95.25 3.99594 92.0041 0.75 88 0.75Z" stroke="#333333" stroke-width="1.5"/>
</g>
<defs>
<clipPath id="clip0_149_862">
<rect width="127" height="31" fill="white"/>
</clipPath>
</defs>
</svg>
